<svg xmlns="http://www.w3.org/2000/svg" xmlns:xlink="http://www.w3.org/1999/xlink" x="0" y="0" width="316" height="152" style="
        width:316px;
        height:152px;
        background: transparent;
        fill: none;
">
        <svg xmlns="http://www.w3.org/2000/svg"/>
        
        <svg xmlns="http://www.w3.org/2000/svg" class="role-diagram-draw-area"><g class="shapes-region" style="stroke: black; fill: none;"><g class="grouped-shape"><g class="composite-shape"><path class="real" d=" M7,131.5 L307,31.5 L7,31.5 Z" style="stroke-width: 1; stroke: rgb(0, 0, 0); fill: none; fill-opacity: 1;"/></g><g class="composite-shape"><path class="real" d=" M7,31.5 L157,31.5 L157,81.5 L7,81.5 Z" style="stroke-width: 1; stroke: none; fill: none; fill-opacity: 1;"/><path class="real" d=" M7,31.5 L7,81.5 M16.99,31.5 L16.99,81.5 M26.98,31.5 L26.98,81.5 M36.97,31.5 L36.97,81.5 M46.96,31.5 L46.96,81.5 M56.95,31.5 L56.95,81.5 M66.94,31.5 L66.94,81.5 M76.93,31.5 L76.93,81.5 M86.92,31.5 L86.92,81.5 M96.91,31.5 L96.91,81.5 M106.9,31.5 L106.9,81.5 M116.89,31.5 L116.89,81.5 M126.88,31.5 L126.88,81.5 M136.87,31.5 L136.87,81.5 M146.86,31.5 L146.86,81.5 M156.85,31.5 L156.85,81.5" style="stroke-width: 1; stroke: rgb(0, 0, 0); fill: none; fill-opacity: 1;"/><path class="real" d=" M7,31.5 L157,31.5 M7,41.49 L157,41.49 M7,51.48 L157,51.48 M7,61.47 L157,61.47 M7,71.46 L157,71.46 M7,81.45 L157,81.45" style="stroke-width: 1; stroke: rgb(0, 0, 0); fill: none; fill-opacity: 1;"/><path class="real" d=" " style="stroke-width: 1; stroke: rgb(0, 0, 0); fill: none; fill-opacity: 1;"/></g><g class="arrow-line"><path class="connection real" stroke-dasharray="" d="  M48,100.5 L144.04,119.61" style="stroke: rgb(0, 0, 0); stroke-width: 1; fill: none; fill-opacity: 1;"/><g stroke="#000" transform="matrix(-0.9807852804032305,-0.19509032201612792,0.19509032201612792,-0.9807852804032305,145.99999999999997,120)" style="stroke: rgb(0, 0, 0); stroke-width: 1;"><path d=" M10.93,-3.29 Q4.96,-0.45 0,0 Q4.96,0.45 10.93,3.29"/></g></g><g class="arrow-line"><path class="connection real" stroke-dasharray="" d="  M184,49.5 L146.95,118.24" style="stroke: rgb(0, 0, 0); stroke-width: 1; fill: none; fill-opacity: 1;"/><g stroke="#000" transform="matrix(0.47439552473392865,-0.8803118118669205,0.8803118118669205,0.47439552473392865,146,120)" style="stroke: rgb(0, 0, 0); stroke-width: 1;"><path d=" M10.93,-3.29 Q4.96,-0.45 0,0 Q4.96,0.45 10.93,3.29"/></g></g></g><g/></g><g/><g/><g/></svg>
        <svg xmlns="http://www.w3.org/2000/svg" xmlns:xlink="http://www.w3.org/1999/xlink" width="314" height="150" style="width:314px;height:150px;font-family:ThickerLm-Math, ThickerLm, Asana-Math, Asana;background:transparent;"><g><g><g><text x="89.5" y="9.9000244140625" style="white-space:pre;stroke:none;fill:rgb(0,0,0);fill-opacity:1;font-size:15px;font-family:&quot;Cambria Math&quot;, Arial, Helvetica, sans-serif;font-weight:400;font-style:normal;dominant-baseline:text-before-edge;text-decoration:none solid rgb(0, 0, 0);">整个遍历区域</text></g></g></g><g><g><g><text x="101.5" y="123.4000244140625" style="white-space:pre;stroke:none;fill:rgb(0,0,0);fill-opacity:1;font-size:15px;font-family:&quot;Cambria Math&quot;, Arial, Helvetica, sans-serif;font-weight:400;font-style:normal;dominant-baseline:text-before-edge;text-decoration:none solid rgb(0, 0, 0);">多遍历的区域</text></g></g></g></svg>
</svg>
